<svg width="23" height="23" viewBox="0 0 23 23" fill="none" xmlns="http://www.w3.org/2000/svg">
<rect width="23" height="23" rx="2" fill="white" fill-opacity="0.6"/>
<path d="M7.028 16.168C6.148 16.168 5.356 15.984 4.652 15.616C3.956 15.24 3.408 14.72 3.008 14.056C2.608 13.392 2.408 12.64 2.408 11.8C2.408 10.96 2.608 10.208 3.008 9.544C3.408 8.88 3.956 8.364 4.652 7.996C5.356 7.62 6.148 7.432 7.028 7.432C7.796 7.432 8.488 7.568 9.104 7.84C9.72 8.112 10.232 8.504 10.64 9.016L9.128 10.384C8.584 9.728 7.924 9.4 7.148 9.4C6.692 9.4 6.284 9.5 5.924 9.7C5.572 9.9 5.296 10.184 5.096 10.552C4.904 10.912 4.808 11.328 4.808 11.8C4.808 12.272 4.904 12.692 5.096 13.06C5.296 13.42 5.572 13.7 5.924 13.9C6.284 14.1 6.692 14.2 7.148 14.2C7.924 14.2 8.584 13.872 9.128 13.216L10.64 14.584C10.232 15.096 9.72 15.488 9.104 15.76C8.488 16.032 7.796 16.168 7.028 16.168Z" fill="#212121"/>
<path d="M17.3274 14.368H13.7754L13.1154 16H10.6914L14.3994 7.6H16.7394L20.4594 16H17.9874L17.3274 14.368ZM16.6314 12.616L15.5514 9.928L14.4714 12.616H16.6314Z" fill="#6D9886"/>
</svg>
