<svg width="95" height="13" viewBox="0 0 95 13" fill="none" xmlns="http://www.w3.org/2000/svg">
<path d="M5.028 10.168C4.148 10.168 3.356 9.984 2.652 9.616C1.956 9.24 1.408 8.72 1.008 8.056C0.608 7.392 0.408 6.64 0.408 5.8C0.408 4.96 0.608 4.208 1.008 3.544C1.408 2.88 1.956 2.364 2.652 1.996C3.356 1.62 4.148 1.432 5.028 1.432C5.796 1.432 6.488 1.568 7.104 1.84C7.72 2.112 8.232 2.504 8.64 3.016L7.128 4.384C6.584 3.728 5.924 3.4 5.148 3.4C4.692 3.4 4.284 3.5 3.924 3.7C3.572 3.9 3.296 4.184 3.096 4.552C2.904 4.912 2.808 5.328 2.808 5.8C2.808 6.272 2.904 6.692 3.096 7.06C3.296 7.42 3.572 7.7 3.924 7.9C4.284 8.1 4.692 8.2 5.148 8.2C5.924 8.2 6.584 7.872 7.128 7.216L8.64 8.584C8.232 9.096 7.72 9.488 7.104 9.76C6.488 10.032 5.796 10.168 5.028 10.168ZM11.7634 4.276C11.9954 3.98 12.2954 3.76 12.6634 3.616C13.0394 3.464 13.4674 3.388 13.9474 3.388V5.44C13.7394 5.416 13.5674 5.404 13.4314 5.404C12.9434 5.404 12.5594 5.536 12.2794 5.8C12.0074 6.064 11.8714 6.468 11.8714 7.012V10H9.59138V3.496H11.7634V4.276ZM21.9395 3.496L19.1315 10.264C18.8035 11.064 18.4035 11.624 17.9315 11.944C17.4595 12.272 16.8835 12.436 16.2035 12.436C15.8595 12.436 15.5115 12.38 15.1595 12.268C14.8155 12.164 14.5355 12.024 14.3195 11.848L15.1115 10.252C15.2395 10.372 15.3915 10.464 15.5675 10.528C15.7515 10.6 15.9355 10.636 16.1195 10.636C16.3355 10.636 16.5115 10.592 16.6475 10.504C16.7915 10.416 16.9115 10.276 17.0075 10.084L14.2235 3.496H16.5635L18.1595 7.468L19.7675 3.496H21.9395ZM26.6209 3.388C27.2129 3.388 27.7489 3.528 28.2289 3.808C28.7169 4.08 29.1009 4.472 29.3809 4.984C29.6689 5.488 29.8129 6.076 29.8129 6.748C29.8129 7.42 29.6689 8.012 29.3809 8.524C29.1009 9.028 28.7169 9.42 28.2289 9.7C27.7489 9.972 27.2129 10.108 26.6209 10.108C25.8609 10.108 25.2569 9.88 24.8089 9.424V12.328H22.5289V3.496H24.7009V4.144C25.1249 3.64 25.7649 3.388 26.6209 3.388ZM26.1409 8.296C26.5409 8.296 26.8689 8.16 27.1249 7.888C27.3809 7.608 27.5089 7.228 27.5089 6.748C27.5089 6.268 27.3809 5.892 27.1249 5.62C26.8689 5.34 26.5409 5.2 26.1409 5.2C25.7409 5.2 25.4129 5.34 25.1569 5.62C24.9009 5.892 24.7729 6.268 24.7729 6.748C24.7729 7.228 24.9009 7.608 25.1569 7.888C25.4129 8.16 25.7409 8.296 26.1409 8.296ZM35.3606 9.736C35.1686 9.856 34.9326 9.948 34.6526 10.012C34.3806 10.076 34.0886 10.108 33.7766 10.108C32.9286 10.108 32.2766 9.9 31.8206 9.484C31.3646 9.068 31.1366 8.448 31.1366 7.624V5.44H30.1886V3.736H31.1366V2.044H33.4166V3.736H34.9046V5.44H33.4166V7.6C33.4166 7.832 33.4766 8.016 33.5966 8.152C33.7246 8.28 33.8926 8.344 34.1006 8.344C34.3646 8.344 34.5966 8.276 34.7966 8.14L35.3606 9.736Z" fill="#212121"/>
<path d="M41.9758 8.368H38.4238L37.7638 10H35.3398L39.0478 1.6H41.3878L45.1078 10H42.6358L41.9758 8.368ZM41.2798 6.616L40.1998 3.928L39.1198 6.616H41.2798ZM49.9094 3.388C50.7174 3.388 51.3654 3.628 51.8534 4.108C52.3494 4.588 52.5974 5.312 52.5974 6.28V10H50.3174V6.652C50.3174 5.764 49.9614 5.32 49.2494 5.32C48.8574 5.32 48.5414 5.448 48.3014 5.704C48.0694 5.96 47.9534 6.344 47.9534 6.856V10H45.6734V3.496H47.8454V4.204C48.1014 3.94 48.4054 3.74 48.7574 3.604C49.1094 3.46 49.4934 3.388 49.9094 3.388ZM56.8009 3.388C57.8809 3.388 58.7049 3.636 59.2729 4.132C59.8409 4.62 60.1249 5.372 60.1249 6.388V10H58.0009V9.16C57.6729 9.792 57.0329 10.108 56.0809 10.108C55.5769 10.108 55.1409 10.02 54.7729 9.844C54.4049 9.668 54.1249 9.432 53.9329 9.136C53.7489 8.832 53.6569 8.488 53.6569 8.104C53.6569 7.488 53.8929 7.012 54.3649 6.676C54.8369 6.332 55.5649 6.16 56.5489 6.16H57.8449C57.8049 5.472 57.3449 5.128 56.4649 5.128C56.1529 5.128 55.8369 5.18 55.5169 5.284C55.1969 5.38 54.9249 5.516 54.7009 5.692L53.9329 4.144C54.2929 3.904 54.7289 3.72 55.2409 3.592C55.7609 3.456 56.2809 3.388 56.8009 3.388ZM56.7169 8.668C56.9809 8.668 57.2129 8.604 57.4129 8.476C57.6129 8.348 57.7569 8.16 57.8449 7.912V7.348H56.8609C56.1969 7.348 55.8649 7.568 55.8649 8.008C55.8649 8.208 55.9409 8.368 56.0929 8.488C56.2449 8.608 56.4529 8.668 56.7169 8.668ZM61.564 1.096H63.844V10H61.564V1.096ZM72.1778 3.496L69.3698 10.264C69.0418 11.064 68.6418 11.624 68.1698 11.944C67.6978 12.272 67.1218 12.436 66.4418 12.436C66.0978 12.436 65.7498 12.38 65.3978 12.268C65.0538 12.164 64.7738 12.024 64.5577 11.848L65.3498 10.252C65.4778 10.372 65.6298 10.464 65.8058 10.528C65.9898 10.6 66.1738 10.636 66.3577 10.636C66.5738 10.636 66.7498 10.592 66.8858 10.504C67.0298 10.416 67.1498 10.276 67.2458 10.084L64.4617 3.496H66.8018L68.3978 7.468L70.0058 3.496H72.1778ZM77.4309 9.736C77.2389 9.856 77.0029 9.948 76.7229 10.012C76.4509 10.076 76.1589 10.108 75.8469 10.108C74.9989 10.108 74.3469 9.9 73.8909 9.484C73.4349 9.068 73.2069 8.448 73.2069 7.624V5.44H72.2589V3.736H73.2069V2.044H75.4869V3.736H76.9749V5.44H75.4869V7.6C75.4869 7.832 75.5469 8.016 75.6669 8.152C75.7949 8.28 75.9629 8.344 76.1709 8.344C76.4349 8.344 76.6669 8.276 76.8669 8.14L77.4309 9.736ZM78.3101 3.496H80.5901V10H78.3101V3.496ZM79.4501 2.776C79.0341 2.776 78.6981 2.66 78.4421 2.428C78.1861 2.196 78.0581 1.908 78.0581 1.564C78.0581 1.22 78.1861 0.931999 78.4421 0.7C78.6981 0.468 79.0341 0.352 79.4501 0.352C79.8661 0.352 80.2021 0.464 80.4581 0.688C80.7141 0.904 80.8421 1.184 80.8421 1.528C80.8421 1.888 80.7141 2.188 80.4581 2.428C80.2021 2.66 79.8661 2.776 79.4501 2.776ZM85.3958 10.108C84.6758 10.108 84.0318 9.964 83.4638 9.676C82.8958 9.388 82.4518 8.988 82.1318 8.476C81.8198 7.964 81.6638 7.384 81.6638 6.736C81.6638 6.088 81.8198 5.512 82.1318 5.008C82.4518 4.496 82.8958 4.1 83.4638 3.82C84.0318 3.532 84.6758 3.388 85.3958 3.388C86.1318 3.388 86.7678 3.548 87.3038 3.868C87.8398 4.18 88.2198 4.616 88.4438 5.176L86.6798 6.076C86.3838 5.492 85.9518 5.2 85.3838 5.2C84.9758 5.2 84.6358 5.336 84.3638 5.608C84.0998 5.88 83.9678 6.256 83.9678 6.736C83.9678 7.224 84.0998 7.608 84.3638 7.888C84.6358 8.16 84.9758 8.296 85.3838 8.296C85.9518 8.296 86.3838 8.004 86.6798 7.42L88.4438 8.32C88.2198 8.88 87.8398 9.32 87.3038 9.64C86.7678 9.952 86.1318 10.108 85.3958 10.108ZM91.6663 10.108C91.1223 10.108 90.5863 10.048 90.0583 9.928C89.5303 9.8 89.1063 9.636 88.7863 9.436L89.4703 7.876C89.7663 8.06 90.1183 8.208 90.5263 8.32C90.9343 8.424 91.3383 8.476 91.7383 8.476C92.1063 8.476 92.3663 8.44 92.5183 8.368C92.6783 8.288 92.7583 8.176 92.7583 8.032C92.7583 7.888 92.6623 7.788 92.4703 7.732C92.2863 7.668 91.9903 7.608 91.5823 7.552C91.0623 7.488 90.6183 7.404 90.2503 7.3C89.8903 7.196 89.5783 7.004 89.3143 6.724C89.0503 6.444 88.9183 6.052 88.9183 5.548C88.9183 5.132 89.0423 4.764 89.2903 4.444C89.5383 4.116 89.8983 3.86 90.3703 3.676C90.8503 3.484 91.4223 3.388 92.0863 3.388C92.5583 3.388 93.0263 3.436 93.4903 3.532C93.9543 3.628 94.3423 3.764 94.6543 3.94L93.9703 5.488C93.3943 5.168 92.7703 5.008 92.0983 5.008C91.7383 5.008 91.4743 5.052 91.3063 5.14C91.1383 5.22 91.0543 5.328 91.0543 5.464C91.0543 5.616 91.1463 5.724 91.3303 5.788C91.5143 5.844 91.8183 5.904 92.2423 5.968C92.7783 6.048 93.2223 6.14 93.5743 6.244C93.9263 6.348 94.2303 6.54 94.4863 6.82C94.7503 7.092 94.8823 7.476 94.8823 7.972C94.8823 8.38 94.7583 8.748 94.5103 9.076C94.2623 9.396 93.8943 9.648 93.4063 9.832C92.9263 10.016 92.3463 10.108 91.6663 10.108Z" fill="#6D9886"/>
</svg>
